ffmpeg version 4.2.7-0ubuntu0.1 Copyright (c) 2000-2022 the FFmpeg developers
  built with gcc 9 (Ubuntu 9.4.0-1ubuntu1~20.04.1)
  configuration: --prefix=/usr --extra-version=0ubuntu0.1 --toolchain=hardened --libdir=/usr/lib/x86_64-linux-gnu --incdir=/usr/include/x86_64-linux-gnu --arch=amd64 --enable-gpl --disable-stripping --enable-avresample --disable-filter=resample --enable-avisynth --enable-gnutls --enable-ladspa --enable-libaom --enable-libass --enable-libbluray --enable-libbs2b --enable-libcaca --enable-libcdio --enable-libcodec2 --enable-libflite --enable-libfontconfig --enable-libfreetype --enable-libfribidi --enable-libgme --enable-libgsm --enable-libjack --enable-libmp3lame --enable-libmysofa --enable-libopenjpeg --enable-libopenmpt --enable-libopus --enable-libpulse --enable-librsvg --enable-librubberband --enable-libshine --enable-libsnappy --enable-libsoxr --enable-libspeex --enable-libssh --enable-libtheora --enable-libtwolame --enable-libvidstab --enable-libvorbis --enable-libvpx --enable-libwavpack --enable-libwebp --enable-libx265 --enable-libxml2 --enable-libxvid --enable-libzmq --enable-libzvbi --enable-lv2 --enable-omx --enable-openal --enable-opencl --enable-opengl --enable-sdl2 --enable-libdc1394 --enable-libdrm --enable-libiec61883 --enable-nvenc --enable-chromaprint --enable-frei0r --enable-libx264 --enable-shared
  libavutil      56. 31.100 / 56. 31.100
  libavcodec     58. 54.100 / 58. 54.100
  libavformat    58. 29.100 / 58. 29.100
  libavdevice    58.  8.100 / 58.  8.100
  libavfilter     7. 57.100 /  7. 57.100
  libavresample   4.  0.  0 /  4.  0.  0
  libswscale      5.  5.100 /  5.  5.100
  libswresample   3.  5.100 /  3.  5.100
  libpostproc    55.  5.100 / 55.  5.100
Routing option strict to both codec and muxer layer
[h264 @ 0x55d3abef9000] Reinit context to 640x352, pix_fmt: yuv420p
Input #0, mov,mp4,m4a,3gp,3g2,mj2, from '/var/www/html/project/media/video/original/VID-20221005-WA0007.mp4':
  Metadata:
    major_brand     : mp42
    minor_version   : 0
    compatible_brands: mp42isom
  Duration: 00:00:19.14, start: 0.000000, bitrate: 2245 kb/s
    Stream #0:0(und): Video: h264 (High), 1 reference frame (avc1 / 0x31637661), yuv420p(tv, left), 640x352, 1985 kb/s, 29.69 fps, 30 tbr, 90k tbn, 180k tbc (default)
    Metadata:
      rotate          : 90
    Side data:
      displaymatrix: rotation of -90.00 degrees
    Stream #0:1(und): Audio: aac (LC) (mp4a / 0x6134706D), 48000 Hz, stereo, fltp, 256 kb/s (default)
Input #1, png_pipe, from '/var/www/html/project/static/images/templates/logo_vertical.png':
  Duration: N/A, bitrate: N/A
    Stream #1:0: Video: png, 1 reference frame, rgba(pc), 1920x1080 [SAR 2835:2835 DAR 16:9], 25 tbr, 25 tbn, 25 tbc
[Parsed_scale_1 @ 0x55d3abfa5480] w:1280 h:720 flags:'bilinear' interl:0
[Parsed_scale_4 @ 0x55d3abfff580] w:-1 h:720 flags:'bilinear' interl:0
[Parsed_scale_6 @ 0x55d3abfe1200] w:1280 h:720 flags:'bilinear' interl:0
Stream mapping:
  Stream #0:0 (h264) -> split (graph 0)
  Stream #1:0 (png) -> scale (graph 0)
  overlay (graph 0) -> Stream #0:0 (libx264)
  Stream #0:1 -> #0:1 (aac (native) -> aac (native))
Press [q] to stop, [?] for help
[h264 @ 0x55d3abf32400] Reinit context to 640x352, pix_fmt: yuv420p
[graph_1_in_0_1 @ 0x55d3ac387080] tb:1/48000 samplefmt:fltp samplerate:48000 chlayout:0x3
[Parsed_scale_1 @ 0x55d3ac4ef100] w:1280 h:720 flags:'bilinear' interl:0
[Parsed_scale_4 @ 0x55d3ac4f1980] w:-1 h:720 flags:'bilinear' interl:0
[Parsed_scale_6 @ 0x55d3ac4f1f80] w:1280 h:720 flags:'bilinear' interl:0
[graph 0 input from stream 0:0 @ 0x55d3ac4f3b00] w:640 h:352 pixfmt:yuv420p tb:1/90000 fr:30/1 sar:0/1 sws_param:flags=2
[graph 0 input from stream 1:0 @ 0x55d3ac4f5440] w:1920 h:1080 pixfmt:rgba tb:1/25 fr:25/1 sar:2835/2835 sws_param:flags=2
[transpose @ 0x55d3ac4f4900] w:640 h:352 dir:1 -> w:352 h:640 rotation:clockwise vflip:0
[Parsed_scale_1 @ 0x55d3ac4ef100] w:352 h:640 fmt:yuv420p sar:0/1 -> w:1280 h:720 fmt:yuv420p sar:0/1 flags:0x2
[Parsed_boxblur_2 @ 0x55d3ac4efb80] luma_radius:36 luma_power:1 chroma_radius:18 chroma_power:1 alpha_radius:36 alpha_power:1 w:1280 chroma_w:640 h:720 chroma_h:360
[Parsed_setsar_3 @ 0x55d3ac4f13c0] w:1280 h:720 sar:0/1 dar:16/9 -> sar:1/1 dar:16/9
[Parsed_scale_4 @ 0x55d3ac4f1980] w:352 h:640 fmt:yuv420p sar:0/1 -> w:396 h:720 fmt:yuva420p sar:0/1 flags:0x2
[Parsed_setsar_5 @ 0x55d3ac4f0540] w:396 h:720 sar:0/1 dar:11/20 -> sar:1/1 dar:11/20
[Parsed_overlay_8 @ 0x55d3ac4f2b40] main w:1280 h:720 fmt:yuv420p overlay w:396 h:720 fmt:yuva420p
[Parsed_overlay_8 @ 0x55d3ac4f2b40] [framesync @ 0x55d3ac4f21a8] Selected 1/90000 time base
[Parsed_overlay_8 @ 0x55d3ac4f2b40] [framesync @ 0x55d3ac4f21a8] Sync level 2
[Parsed_scale_6 @ 0x55d3ac4f1f80] w:1920 h:1080 fmt:rgba sar:2835/2835 -> w:1280 h:720 fmt:yuva420p sar:1/1 flags:0x2
[Parsed_setsar_7 @ 0x55d3ac4f2640] w:1280 h:720 sar:1/1 dar:16/9 -> sar:1/1 dar:16/9
[Parsed_overlay_9 @ 0x55d3ac4f0900] main w:1280 h:720 fmt:yuv420p overlay w:1280 h:720 fmt:yuva420p
[Parsed_overlay_9 @ 0x55d3ac4f0900] [framesync @ 0x55d3ac4f30e8] Selected 1/90000 time base
[Parsed_overlay_9 @ 0x55d3ac4f0900] [framesync @ 0x55d3ac4f30e8] Sync level 2
[libx264 @ 0x55d3abfe17c0] using SAR=1/1
[libx264 @ 0x55d3abfe17c0] using cpu capabilities: MMX2 SSE2Fast SSSE3 SSE4.2 AVX FMA3 BMI2 AVX2
[libx264 @ 0x55d3abfe17c0] profile High, level 3.1
[libx264 @ 0x55d3abfe17c0] 264 - core 155 r2917 0a84d98 - H.264/MPEG-4 AVC codec - Copyleft 2003-2018 - http://www.videolan.org/x264.html - options: cabac=1 ref=1 deblock=1:0:0 analyse=0x3:0x113 me=hex subme=2 psy=1 psy_rd=1.00:0.00 mixed_ref=0 me_range=16 chroma_me=1 trellis=0 8x8dct=1 cqm=0 deadzone=21,11 fast_pskip=1 chroma_qp_offset=0 threads=22 lookahead_threads=5 sliced_threads=0 nr=0 decimate=1 interlaced=0 bluray_compat=0 constrained_intra=0 bframes=3 b_pyramid=2 b_adapt=1 b_bias=0 direct=1 weightb=1 open_gop=0 weightp=1 keyint=250 keyint_min=25 scenecut=40 intra_refresh=0 rc_lookahead=10 rc=crf mbtree=1 crf=18.0 qcomp=0.60 qpmin=0 qpmax=69 qpstep=4 ip_ratio=1.40 aq=1:1.00
Output #0, mp4, to '/var/www/html/project/media/video/watermarks/VID-20221005-WA0007.mp4':
  Metadata:
    major_brand     : mp42
    minor_version   : 0
    compatible_brands: mp42isom
    encoder         : Lavf58.29.100
    Stream #0:0: Video: h264 (libx264), 1 reference frame (avc1 / 0x31637661), yuv420p, 1280x720 [SAR 1:1 DAR 16:9], q=-1--1, 30 fps, 15360 tbn, 30 tbc (default)
    Metadata:
      encoder         : Lavc58.54.100 libx264
    Side data:
      cpb: bitrate max/min/avg: 0/0/0 buffer size: 0 vbv_delay: -1
    Stream #0:1(und): Audio: aac (LC) (mp4a / 0x6134706D), 48000 Hz, stereo, fltp, delay 1024, 128 kb/s (default)
    Metadata:
      encoder         : Lavc58.54.100 aac
[Parsed_overlay_8 @ 0x55d3ac4f2b40] [framesync @ 0x55d3ac4f21a8] Sync level 1
[Parsed_overlay_8 @ 0x55d3ac4f2b40] [framesync @ 0x55d3ac4f21a8] Sync level 0
[Parsed_overlay_9 @ 0x55d3ac4f0900] [framesync @ 0x55d3ac4f30e8] Sync level 0
No more output streams to write to, finishing.
frame=  568 fps= 62 q=-1.0 Lsize=   11299kB time=00:00:19.13 bitrate=4837.2kbits/s speed= 2.1x    
[AVIOContext @ 0x55d3abef7280] Statistics: 0 seeks, 18 writeouts
video:10951kB audio:326kB subtitle:0kB other streams:0kB global headers:0kB muxing overhead: 0.192594%
Input file #0 (/var/www/html/project/media/video/original/VID-20221005-WA0007.mp4):
  Input stream #0:0 (video): 568 packets read (4747177 bytes); 568 frames decoded; 
  Input stream #0:1 (audio): 897 packets read (612429 bytes); 897 frames decoded (918528 samples); 
  Total: 1465 packets (5359606 bytes) demuxed
Input file #1 (/var/www/html/project/static/images/templates/logo_vertical.png):
  Input stream #1:0 (video): 1 packets read (93903 bytes); 1 frames decoded; 
  Total: 1 packets (93903 bytes) demuxed
Output file #0 (/var/www/html/project/media/video/watermarks/VID-20221005-WA0007.mp4):
  Output stream #0:0 (video): 568 frames encoded; 568 packets muxed (11213910 bytes); 
  Output stream #0:1 (audio): 897 frames encoded (918528 samples); 898 packets muxed (334210 bytes); 
  Total: 1466 packets (11548120 bytes) muxed
[AVIOContext @ 0x55d3abf2b100] Statistics: 2 seeks, 48 writeouts
[libx264 @ 0x55d3abfe17c0] frame I:3     Avg QP:15.70  size: 70483
[libx264 @ 0x55d3abfe17c0] frame P:200   Avg QP:18.69  size: 32756
[libx264 @ 0x55d3abfe17c0] frame B:365   Avg QP:20.08  size: 12193
[libx264 @ 0x55d3abfe17c0] consecutive B-frames:  7.6% 15.8% 13.2% 63.4%
[libx264 @ 0x55d3abfe17c0] mb I  I16..4: 29.1% 38.3% 32.6%
[libx264 @ 0x55d3abfe17c0] mb P  I16..4: 20.3% 20.3%  3.0%  P16..4: 20.3% 14.5%  9.1%  0.0%  0.0%    skip:12.3%
[libx264 @ 0x55d3abfe17c0] mb B  I16..4:  5.1%  2.6%  0.1%  B16..8: 25.5% 10.9%  1.7%  direct:11.5%  skip:42.5%  L0:36.8% L1:39.5% BI:23.7%
[libx264 @ 0x55d3abfe17c0] 8x8 transform intra:43.1% inter:24.7%
[libx264 @ 0x55d3abfe17c0] coded y,uvDC,uvAC intra: 27.6% 37.2% 3.7% inter: 17.9% 18.5% 0.7%
[libx264 @ 0x55d3abfe17c0] i16 v,h,dc,p: 21% 40%  9% 29%
[libx264 @ 0x55d3abfe17c0] i8 v,h,dc,ddl,ddr,vr,hd,vl,hu: 11% 50% 16%  3%  4%  3%  7%  3%  4%
[libx264 @ 0x55d3abfe17c0] i4 v,h,dc,ddl,ddr,vr,hd,vl,hu: 21% 21% 18%  6%  8%  6%  7%  6%  7%
[libx264 @ 0x55d3abfe17c0] i8c dc,h,v,p: 50% 33% 10%  7%
[libx264 @ 0x55d3abfe17c0] Weighted P-Frames: Y:9.5% UV:0.0%
[libx264 @ 0x55d3abfe17c0] kb/s:4688.45
[aac @ 0x55d3abf5f840] Qavg: 918.457
[AVIOContext @ 0x55d3abf00240] Statistics: 5495372 bytes read, 5 seeks
[AVIOContext @ 0x55d3abf095c0] Statistics: 93903 bytes read, 0 seeks
